<svg width="200" height="75" viewBox="0 0 200 75" fill="none" xmlns="http://www.w3.org/2000/svg">
<path d="M24.745 11.1096C25.7077 11.1163 26.6698 11.123 27.5883 11.123H36.9331C37.8514 11.123 38.8136 11.1163 39.7762 11.1096C42.3679 11.0916 44.9634 11.0735 46.7201 11.186C53.115 11.5955 57.5253 15.4703 58.0923 22.0542C58.2268 24.4201 58.2235 27.2701 58.2198 30.6313C58.219 31.2081 58.2184 31.8011 58.2184 32.4082V41.753C58.2184 42.3602 58.219 42.9521 58.2198 43.529C58.2235 46.8906 58.2268 49.7411 58.0923 52.1071C57.5253 58.691 53.115 62.5658 46.7201 62.9753C44.9634 63.0879 42.3679 63.0697 39.7762 63.0518C38.8136 63.045 37.8514 63.0383 36.9331 63.0383H27.5883C26.6698 63.0383 25.7077 63.045 24.745 63.0518C22.1535 63.0697 19.558 63.0879 17.8013 62.9753C11.4064 62.5658 6.99608 58.691 6.42904 52.1071C6.29459 49.7412 6.29785 46.8911 6.30168 43.53C6.30234 42.9531 6.30301 42.3602 6.30301 41.753V32.4082C6.30301 31.8011 6.30234 31.2091 6.30168 30.6323C6.29785 27.2711 6.29459 24.4201 6.42904 22.0542C6.99608 15.4703 11.4064 11.5955 17.8013 11.186C19.558 11.0735 22.1535 11.0916 24.745 11.1096Z" fill="url(#paint0_linear_107_2)"/>
<g filter="url(#filter0_dddddd_107_2)">
<path d="M14.7429 29.6192C14.7429 28.297 15.8148 27.2251 17.1371 27.2251H33.8962C37.2366 27.2251 39.9445 29.933 39.9445 33.2735V44.4252C39.9445 45.7475 38.8727 46.8193 37.5504 46.8193H20.7913C17.4509 46.8193 14.7429 44.1114 14.7429 40.771V29.6192Z" fill="url(#paint1_linear_107_2)"/>
<path d="M17.1371 27.5088H33.8962C37.08 27.5088 39.661 30.0898 39.661 33.2737V44.4254C39.661 45.5911 38.7161 46.536 37.5504 46.536H20.7913C17.6074 46.536 15.0264 43.955 15.0264 40.7712V29.6194C15.0264 28.4537 15.9715 27.5088 17.1371 27.5088Z" stroke="url(#paint2_linear_107_2)" stroke-width="0.567037"/>
</g>
<path d="M87.0442 34.2187H82.18C82.0912 33.5894 81.9098 33.0305 81.6358 32.5418C81.3619 32.0458 81.0102 31.6238 80.5808 31.2758C80.1514 30.9279 79.6554 30.6613 79.0927 30.4762C78.5374 30.2911 77.9341 30.1986 77.2825 30.1986C76.1054 30.1986 75.08 30.491 74.2064 31.0759C73.3327 31.6534 72.6553 32.4974 72.1741 33.608C71.6928 34.7111 71.4522 36.0511 71.4522 37.6281C71.4522 39.2495 71.6928 40.6117 72.1741 41.7149C72.6627 42.818 73.3438 43.6509 74.2175 44.2136C75.0911 44.7763 76.1017 45.0576 77.2492 45.0576C77.8933 45.0576 78.4893 44.9725 79.0372 44.8022C79.5925 44.6319 80.0848 44.3839 80.5142 44.0581C80.9436 43.7249 81.299 43.3215 81.5803 42.8476C81.8691 42.3738 82.069 41.8333 82.18 41.2262L87.0442 41.2484C86.9183 42.2924 86.6037 43.2992 86.1002 44.2691C85.6042 45.2316 84.9341 46.0941 84.0901 46.8567C83.2535 47.6118 82.254 48.2115 81.0917 48.6557C79.9367 49.0925 78.63 49.311 77.1715 49.311C75.1429 49.311 73.329 48.8519 71.7299 47.9339C70.1381 47.0158 68.8795 45.6869 67.954 43.9471C67.036 42.2072 66.577 40.1009 66.577 37.6281C66.577 35.1479 67.0434 33.0379 67.9762 31.298C68.9091 29.5582 70.1751 28.233 71.7743 27.3223C73.3735 26.4043 75.1725 25.9452 77.1715 25.9452C78.4893 25.9452 79.7109 26.1303 80.8363 26.5005C81.969 26.8707 82.9722 27.4112 83.8458 28.1219C84.7194 28.8252 85.4302 29.6878 85.978 30.7095C86.5333 31.7311 86.8887 32.9009 87.0442 34.2187ZM111.393 37.6281C111.393 40.1083 110.923 42.2183 109.982 43.9582C109.049 45.698 107.776 47.0269 106.162 47.945C104.555 48.8556 102.749 49.311 100.743 49.311C98.7215 49.311 96.9076 48.8519 95.301 47.9339C93.6944 47.0158 92.4247 45.6869 91.4919 43.9471C90.559 42.2072 90.0926 40.1009 90.0926 37.6281C90.0926 35.1479 90.559 33.0379 91.4919 31.298C92.4247 29.5582 93.6944 28.233 95.301 27.3223C96.9076 26.4043 98.7215 25.9452 100.743 25.9452C102.749 25.9452 104.555 26.4043 106.162 27.3223C107.776 28.233 109.049 29.5582 109.982 31.298C110.923 33.0379 111.393 35.1479 111.393 37.6281ZM106.517 37.6281C106.517 36.0215 106.277 34.6667 105.796 33.5635C105.322 32.4604 104.652 31.6238 103.786 31.0537C102.919 30.4836 101.905 30.1986 100.743 30.1986C99.5803 30.1986 98.566 30.4836 97.6998 31.0537C96.8335 31.6238 96.1598 32.4604 95.6786 33.5635C95.2048 34.6667 94.9678 36.0215 94.9678 37.6281C94.9678 39.2347 95.2048 40.5895 95.6786 41.6927C96.1598 42.7958 96.8335 43.6324 97.6998 44.2025C98.566 44.7726 99.5803 45.0576 100.743 45.0576C101.905 45.0576 102.919 44.7726 103.786 44.2025C104.652 43.6324 105.322 42.7958 105.796 41.6927C106.277 40.5895 106.517 39.2347 106.517 37.6281ZM133.978 26.2562V49H129.825L119.93 34.6852H119.763V49H114.955V26.2562H119.175L128.992 40.5599H129.192V26.2562H133.978ZM142.06 26.2562L147.557 43.5362H147.768L153.277 26.2562H158.607L150.767 49H144.57L136.718 26.2562H142.06ZM180.962 37.6281C180.962 40.1083 180.492 42.2183 179.552 43.9582C178.619 45.698 177.346 47.0269 175.732 47.945C174.125 48.8556 172.319 49.311 170.312 49.311C168.291 49.311 166.477 48.8519 164.871 47.9339C163.264 47.0158 161.994 45.6869 161.061 43.9471C160.129 42.2072 159.662 40.1009 159.662 37.6281C159.662 35.1479 160.129 33.0379 161.061 31.298C161.994 29.5582 163.264 28.233 164.871 27.3223C166.477 26.4043 168.291 25.9452 170.312 25.9452C172.319 25.9452 174.125 26.4043 175.732 27.3223C177.346 28.233 178.619 29.5582 179.552 31.298C180.492 33.0379 180.962 35.1479 180.962 37.6281ZM176.087 37.6281C176.087 36.0215 175.846 34.6667 175.365 33.5635C174.891 32.4604 174.221 31.6238 173.355 31.0537C172.489 30.4836 171.475 30.1986 170.312 30.1986C169.15 30.1986 168.136 30.4836 167.269 31.0537C166.403 31.6238 165.729 32.4604 165.248 33.5635C164.774 34.6667 164.537 36.0215 164.537 37.6281C164.537 39.2347 164.774 40.5895 165.248 41.6927C165.729 42.7958 166.403 43.6324 167.269 44.2025C168.136 44.7726 169.15 45.0576 170.312 45.0576C171.475 45.0576 172.489 44.7726 173.355 44.2025C174.221 43.6324 174.891 42.7958 175.365 41.6927C175.846 40.5895 176.087 39.2347 176.087 37.6281Z" fill="white"/>
<g filter="url(#filter1_dddddd_107_2)">
<path d="M41.4566 34.1623C41.4566 33.3473 41.8073 32.5717 42.4191 32.0335L47.2206 27.8096C48.2382 26.9145 49.8361 27.637 49.8361 28.9922V45.1001C49.8361 46.4427 48.2643 47.1697 47.2413 46.3005L42.8336 42.5557C41.9601 41.8136 41.4566 40.7252 41.4566 39.5789V34.1623Z" fill="url(#paint3_linear_107_2)"/>
<path d="M42.6064 32.2465L47.4079 28.0226C48.2424 27.2886 49.5526 27.881 49.5526 28.9923V45.1003C49.5526 46.2011 48.2637 46.7974 47.4248 46.0845L43.0172 42.3398C42.207 41.6514 41.7401 40.642 41.7401 39.579V34.1624C41.7401 33.4289 42.0557 32.7309 42.6064 32.2465Z" stroke="url(#paint4_linear_107_2)" stroke-width="0.567037"/>
</g>
<defs>
<filter id="filter0_dddddd_107_2" x="10.2066" y="25.524" width="34.2742" height="28.6668" filterUnits="userSpaceOnUse" color-interpolation-filters="sRGB">
<feFlood flood-opacity="0" result="BackgroundImageFix"/>
<feColorMatrix in="SourceAlpha" type="matrix" values="0 0 0 0 0 0 0 0 0 0 0 0 0 0 0 0 0 0 127 0" result="hardAlpha"/>
<feOffset dy="0.155601"/>
<feGaussianBlur stdDeviation="0.057319"/>
<feColorMatrix type="matrix" values="0 0 0 0 0.0509804 0 0 0 0 0.121569 0 0 0 0 0.396078 0 0 0 0.189957 0"/>
<feBlend mode="multiply" in2="BackgroundImageFix" result="effect1_dropShadow_107_2"/>
<feColorMatrix in="SourceAlpha" type="matrix" values="0 0 0 0 0 0 0 0 0 0 0 0 0 0 0 0 0 0 127 0" result="hardAlpha"/>
<feOffset dy="0.305287"/>
<feGaussianBlur stdDeviation="0.127482"/>
<feColorMatrix type="matrix" values="0 0 0 0 0.0509804 0 0 0 0 0.121569 0 0 0 0 0.396078 0 0 0 0.368551 0"/>
<feBlend mode="multiply" in2="effect1_dropShadow_107_2" result="effect2_dropShadow_107_2"/>
<feColorMatrix in="SourceAlpha" type="matrix" values="0 0 0 0 0 0 0 0 0 0 0 0 0 0 0 0 0 0 127 0" result="hardAlpha"/>
<feOffset dy="0.469499"/>
<feGaussianBlur stdDeviation="0.21833"/>
<feColorMatrix type="matrix" values="0 0 0 0 0.0509804 0 0 0 0 0.121569 0 0 0 0 0.396078 0 0 0 0.3 0"/>
<feBlend mode="multiply" in2="effect2_dropShadow_107_2" result="effect3_dropShadow_107_2"/>
<feColorMatrix in="SourceAlpha" type="matrix" values="0 0 0 0 0 0 0 0 0 0 0 0 0 0 0 0 0 0 127 0" result="hardAlpha"/>
<feOffset dy="0.688904"/>
<feGaussianBlur stdDeviation="0.69336"/>
<feColorMatrix type="matrix" values="0 0 0 0 0.0509804 0 0 0 0 0.121569 0 0 0 0 0.396078 0 0 0 0.3 0"/>
<feBlend mode="multiply" in2="effect3_dropShadow_107_2" result="effect4_dropShadow_107_2"/>
<feColorMatrix in="SourceAlpha" type="matrix" values="0 0 0 0 0 0 0 0 0 0 0 0 0 0 0 0 0 0 127 0" result="hardAlpha"/>
<feOffset dy="1.07196"/>
<feGaussianBlur stdDeviation="1.28906"/>
<feColorMatrix type="matrix" values="0 0 0 0 0.0509804 0 0 0 0 0.121569 0 0 0 0 0.396078 0 0 0 0.29 0"/>
<feBlend mode="overlay" in2="effect4_dropShadow_107_2" result="effect5_dropShadow_107_2"/>
<feColorMatrix in="SourceAlpha" type="matrix" values="0 0 0 0 0 0 0 0 0 0 0 0 0 0 0 0 0 0 127 0" result="hardAlpha"/>
<feOffset dy="2.83518"/>
<feGaussianBlur stdDeviation="2.26815"/>
<feColorMatrix type="matrix" values="0 0 0 0 0.0509804 0 0 0 0 0.121569 0 0 0 0 0.396078 0 0 0 0.45 0"/>
<feBlend mode="multiply" in2="effect5_dropShadow_107_2" result="effect6_dropShadow_107_2"/>
<feBlend mode="normal" in="SourceGraphic" in2="effect6_dropShadow_107_2" result="shape"/>
</filter>
<filter id="filter1_dddddd_107_2" x="36.9203" y="25.7129" width="17.4521" height="28.3368" filterUnits="userSpaceOnUse" color-interpolation-filters="sRGB">
<feFlood flood-opacity="0" result="BackgroundImageFix"/>
<feColorMatrix in="SourceAlpha" type="matrix" values="0 0 0 0 0 0 0 0 0 0 0 0 0 0 0 0 0 0 127 0" result="hardAlpha"/>
<feOffset dy="0.155601"/>
<feGaussianBlur stdDeviation="0.057319"/>
<feColorMatrix type="matrix" values="0 0 0 0 0.0509804 0 0 0 0 0.121569 0 0 0 0 0.396078 0 0 0 0.189957 0"/>
<feBlend mode="multiply" in2="BackgroundImageFix" result="effect1_dropShadow_107_2"/>
<feColorMatrix in="SourceAlpha" type="matrix" values="0 0 0 0 0 0 0 0 0 0 0 0 0 0 0 0 0 0 127 0" result="hardAlpha"/>
<feOffset dy="0.305287"/>
<feGaussianBlur stdDeviation="0.127482"/>
<feColorMatrix type="matrix" values="0 0 0 0 0.0509804 0 0 0 0 0.121569 0 0 0 0 0.396078 0 0 0 0.368551 0"/>
<feBlend mode="multiply" in2="effect1_dropShadow_107_2" result="effect2_dropShadow_107_2"/>
<feColorMatrix in="SourceAlpha" type="matrix" values="0 0 0 0 0 0 0 0 0 0 0 0 0 0 0 0 0 0 127 0" result="hardAlpha"/>
<feOffset dy="0.469499"/>
<feGaussianBlur stdDeviation="0.21833"/>
<feColorMatrix type="matrix" values="0 0 0 0 0.0509804 0 0 0 0 0.121569 0 0 0 0 0.396078 0 0 0 0.3 0"/>
<feBlend mode="multiply" in2="effect2_dropShadow_107_2" result="effect3_dropShadow_107_2"/>
<feColorMatrix in="SourceAlpha" type="matrix" values="0 0 0 0 0 0 0 0 0 0 0 0 0 0 0 0 0 0 127 0" result="hardAlpha"/>
<feOffset dy="0.688904"/>
<feGaussianBlur stdDeviation="0.69336"/>
<feColorMatrix type="matrix" values="0 0 0 0 0.0509804 0 0 0 0 0.121569 0 0 0 0 0.396078 0 0 0 0.3 0"/>
<feBlend mode="multiply" in2="effect3_dropShadow_107_2" result="effect4_dropShadow_107_2"/>
<feColorMatrix in="SourceAlpha" type="matrix" values="0 0 0 0 0 0 0 0 0 0 0 0 0 0 0 0 0 0 127 0" result="hardAlpha"/>
<feOffset dy="1.07196"/>
<feGaussianBlur stdDeviation="1.28906"/>
<feColorMatrix type="matrix" values="0 0 0 0 0.0509804 0 0 0 0 0.121569 0 0 0 0 0.396078 0 0 0 0.29 0"/>
<feBlend mode="overlay" in2="effect4_dropShadow_107_2" result="effect5_dropShadow_107_2"/>
<feColorMatrix in="SourceAlpha" type="matrix" values="0 0 0 0 0 0 0 0 0 0 0 0 0 0 0 0 0 0 127 0" result="hardAlpha"/>
<feOffset dy="2.83518"/>
<feGaussianBlur stdDeviation="2.26815"/>
<feColorMatrix type="matrix" values="0 0 0 0 0.0509804 0 0 0 0 0.121569 0 0 0 0 0.396078 0 0 0 0.45 0"/>
<feBlend mode="multiply" in2="effect5_dropShadow_107_2" result="effect6_dropShadow_107_2"/>
<feBlend mode="normal" in="SourceGraphic" in2="effect6_dropShadow_107_2" result="shape"/>
</filter>
<linearGradient id="paint0_linear_107_2" x1="32.2606" y1="11.0962" x2="32.2606" y2="63.0651" gradientUnits="userSpaceOnUse">
<stop stop-color="#A4C1FF"/>
<stop offset="1" stop-color="#0E78F9"/>
</linearGradient>
<linearGradient id="paint1_linear_107_2" x1="27.3438" y1="27.2251" x2="27.3438" y2="46.8193" gradientUnits="userSpaceOnUse">
<stop stop-color="white"/>
<stop offset="1" stop-color="#C5D4F7"/>
</linearGradient>
<linearGradient id="paint2_linear_107_2" x1="27.3438" y1="27.2253" x2="27.3438" y2="46.8195" gradientUnits="userSpaceOnUse">
<stop stop-color="white"/>
<stop offset="1" stop-color="#637ACA"/>
</linearGradient>
<linearGradient id="paint3_linear_107_2" x1="45.6464" y1="27.4141" x2="45.6464" y2="46.6783" gradientUnits="userSpaceOnUse">
<stop stop-color="white"/>
<stop offset="1" stop-color="#C5D4F7"/>
</linearGradient>
<linearGradient id="paint4_linear_107_2" x1="45.6464" y1="27.4142" x2="45.6464" y2="46.6784" gradientUnits="userSpaceOnUse">
<stop stop-color="white"/>
<stop offset="1" stop-color="#637ACA"/>
</linearGradient>
</defs>
</svg>
